<mxfile host="app.diagrams.net" agent="Mozilla/5.0 (Windows NT 10.0; Win64; x64; rv:128.0) Gecko/20100101 Firefox/128.0" version="24.9.3">
  <diagram name="Page-1" id="0BjuaR10c-HpHQ8Zxktg">
    <mxGraphModel dx="1477" dy="603" grid="1" gridSize="10" guides="1" tooltips="1" connect="1" arrows="1" fold="1" page="1" pageScale="1" pageWidth="827" pageHeight="1169" math="0" shadow="0">
      <root>
        <mxCell id="0" />
        <mxCell id="1" parent="0" />
        <mxCell id="tQV1uXA7SZ9vbFeKETRc-1" value="Utilisateur final" style="shape=umlActor;verticalLabelPosition=bottom;verticalAlign=top;html=1;outlineConnect=0;rotation=0;" parent="1" vertex="1">
          <mxGeometry x="20" y="200" width="70" height="180" as="geometry" />
        </mxCell>
        <mxCell id="tQV1uXA7SZ9vbFeKETRc-2" value="Définir les CRS source et cible ou Charger un fichier pipeline" style="ellipse;whiteSpace=wrap;html=1;" parent="1" vertex="1">
          <mxGeometry x="235" y="70" width="180" height="80" as="geometry" />
        </mxCell>
        <mxCell id="tQV1uXA7SZ9vbFeKETRc-4" value="Lancer la transformation" style="ellipse;whiteSpace=wrap;html=1;" parent="1" vertex="1">
          <mxGeometry x="235" y="380" width="190" height="80" as="geometry" />
        </mxCell>
        <mxCell id="tQV1uXA7SZ9vbFeKETRc-5" value="Afficher ou Enregistrer les resultats" style="ellipse;whiteSpace=wrap;html=1;" parent="1" vertex="1">
          <mxGeometry x="240" y="480" width="180" height="80" as="geometry" />
        </mxCell>
        <mxCell id="tQV1uXA7SZ9vbFeKETRc-7" value="" style="endArrow=none;html=1;rounded=0;entryX=0;entryY=0.5;entryDx=0;entryDy=0;" parent="1" target="tQV1uXA7SZ9vbFeKETRc-2" edge="1">
          <mxGeometry width="50" height="50" relative="1" as="geometry">
            <mxPoint x="120" y="210" as="sourcePoint" />
            <mxPoint x="240" y="90" as="targetPoint" />
            <Array as="points" />
          </mxGeometry>
        </mxCell>
        <mxCell id="tQV1uXA7SZ9vbFeKETRc-9" value="" style="endArrow=none;html=1;rounded=0;entryX=0;entryY=0.5;entryDx=0;entryDy=0;" parent="1" target="tQV1uXA7SZ9vbFeKETRc-4" edge="1">
          <mxGeometry width="50" height="50" relative="1" as="geometry">
            <mxPoint x="120" y="330" as="sourcePoint" />
            <mxPoint x="220" y="250" as="targetPoint" />
          </mxGeometry>
        </mxCell>
        <mxCell id="tQV1uXA7SZ9vbFeKETRc-10" value="" style="endArrow=none;html=1;rounded=0;entryX=0;entryY=0.5;entryDx=0;entryDy=0;" parent="1" target="tQV1uXA7SZ9vbFeKETRc-5" edge="1">
          <mxGeometry width="50" height="50" relative="1" as="geometry">
            <mxPoint x="120" y="370" as="sourcePoint" />
            <mxPoint x="200" y="380" as="targetPoint" />
          </mxGeometry>
        </mxCell>
        <mxCell id="tQV1uXA7SZ9vbFeKETRc-17" value="" style="endArrow=none;html=1;rounded=0;entryX=0;entryY=0.5;entryDx=0;entryDy=0;" parent="1" target="KPu-eZKukHUQzHZda8PG-5" edge="1">
          <mxGeometry width="50" height="50" relative="1" as="geometry">
            <mxPoint x="120" y="250" as="sourcePoint" />
            <mxPoint x="240" y="190.0000000000001" as="targetPoint" />
            <Array as="points" />
          </mxGeometry>
        </mxCell>
        <mxCell id="KPu-eZKukHUQzHZda8PG-5" value="Entrer les coordonnées de points ou charger le fichier excel" style="ellipse;whiteSpace=wrap;html=1;" vertex="1" parent="1">
          <mxGeometry x="240" y="170" width="190" height="80" as="geometry" />
        </mxCell>
        <mxCell id="KPu-eZKukHUQzHZda8PG-6" value="Charger le fichier pour l&#39;export" style="ellipse;whiteSpace=wrap;html=1;" vertex="1" parent="1">
          <mxGeometry x="240" y="280" width="190" height="80" as="geometry" />
        </mxCell>
        <mxCell id="KPu-eZKukHUQzHZda8PG-7" value="" style="endArrow=none;html=1;rounded=0;entryX=0;entryY=0.5;entryDx=0;entryDy=0;" edge="1" parent="1" target="KPu-eZKukHUQzHZda8PG-6">
          <mxGeometry width="50" height="50" relative="1" as="geometry">
            <mxPoint x="120" y="290" as="sourcePoint" />
            <mxPoint x="235" y="370" as="targetPoint" />
          </mxGeometry>
        </mxCell>
        <mxCell id="KPu-eZKukHUQzHZda8PG-8" value="EGI" style="shape=umlActor;verticalLabelPosition=bottom;verticalAlign=top;html=1;outlineConnect=0;" vertex="1" parent="1">
          <mxGeometry x="680" y="760" width="70" height="110" as="geometry" />
        </mxCell>
        <mxCell id="KPu-eZKukHUQzHZda8PG-9" value="Sélectionner le chemin du fichier " style="ellipse;whiteSpace=wrap;html=1;" vertex="1" parent="1">
          <mxGeometry x="440" y="680" width="120" height="70" as="geometry" />
        </mxCell>
        <mxCell id="KPu-eZKukHUQzHZda8PG-10" value="Ajouter ou supprimer des étapes aux fichier" style="ellipse;whiteSpace=wrap;html=1;" vertex="1" parent="1">
          <mxGeometry x="440" y="775" width="120" height="75" as="geometry" />
        </mxCell>
        <mxCell id="KPu-eZKukHUQzHZda8PG-11" value="Enregistrer le fichier" style="ellipse;whiteSpace=wrap;html=1;" vertex="1" parent="1">
          <mxGeometry x="440" y="880" width="120" height="70" as="geometry" />
        </mxCell>
        <mxCell id="KPu-eZKukHUQzHZda8PG-13" value="" style="endArrow=none;html=1;rounded=0;exitX=1;exitY=0.5;exitDx=0;exitDy=0;" edge="1" parent="1" source="KPu-eZKukHUQzHZda8PG-10" target="KPu-eZKukHUQzHZda8PG-8">
          <mxGeometry width="50" height="50" relative="1" as="geometry">
            <mxPoint x="570" y="800" as="sourcePoint" />
            <mxPoint x="660" y="800" as="targetPoint" />
          </mxGeometry>
        </mxCell>
        <mxCell id="KPu-eZKukHUQzHZda8PG-14" value="" style="endArrow=none;html=1;rounded=0;exitX=1;exitY=0.5;exitDx=0;exitDy=0;" edge="1" parent="1" source="KPu-eZKukHUQzHZda8PG-9">
          <mxGeometry width="50" height="50" relative="1" as="geometry">
            <mxPoint x="580" y="720" as="sourcePoint" />
            <mxPoint x="670" y="770" as="targetPoint" />
          </mxGeometry>
        </mxCell>
        <mxCell id="KPu-eZKukHUQzHZda8PG-15" value="" style="endArrow=none;html=1;rounded=0;exitX=1;exitY=0.5;exitDx=0;exitDy=0;" edge="1" parent="1">
          <mxGeometry width="50" height="50" relative="1" as="geometry">
            <mxPoint x="560" y="914.29" as="sourcePoint" />
            <mxPoint x="660" y="860" as="targetPoint" />
          </mxGeometry>
        </mxCell>
      </root>
    </mxGraphModel>
  </diagram>
</mxfile>
